<?xml version="1.0" standalone="no"?>
<!DOCTYPE svg PUBLIC "-//W3C//DTD SVG 20010904//EN"
 "http://www.w3.org/TR/2001/REC-SVG-20010904/DTD/svg10.dtd">
<svg version="1.0" xmlns="http://www.w3.org/2000/svg"
 width="700.000000pt" height="700.000000pt" viewBox="0 0 700.000000 700.000000"
 preserveAspectRatio="xMidYMid meet">
<metadata>
Created by potrace 1.11, written by Peter Selinger 2001-2013
</metadata>
<g transform="translate(0.000000,700.000000) scale(0.100000,-0.100000)"
fill="#000000" stroke="none">
<path d="M408 6938 c-2 -72 0 -150 7 -260 3 -55 1 -79 -8 -85 -6 -4 -101 -6
-209 -4 l-198 3 0 -466 0 -466 28 -1 c15 -1 89 -1 164 -1 146 1 151 0 157 -49
2 -19 25 -3 31 21 3 13 11 25 18 28 10 3 12 -66 13 -315 0 -175 1 -331 2 -348
6 -138 -8 -179 -54 -155 -14 8 -18 18 -13 38 6 32 6 36 -2 80 -5 25 -2 36 12
46 15 12 16 16 5 30 -28 33 -40 19 -40 -46 1 -154 1 -154 -33 -149 -54 8 -192
12 -234 6 l-54 -6 0 -465 0 -464 63 -1 c34 -1 124 -1 199 0 135 1 138 1 143
-21 3 -13 4 -196 2 -408 l-2 -385 -202 -3 -203 -2 0 -464 0 -464 53 -3 c28 -3
97 -2 151 1 114 6 132 -2 115 -47 -7 -19 -6 -35 2 -55 8 -20 8 -36 0 -60 -15
-41 -1 -57 34 -38 l25 13 -22 24 c-20 21 -21 27 -10 57 10 27 10 40 0 60 -9
22 -9 29 4 42 10 10 24 14 37 9 18 -6 21 -14 21 -68 0 -34 1 -219 1 -412 l0
-350 -205 3 -206 4 0 -465 0 -465 52 -4 c29 -3 122 -3 206 -2 114 3 152 0 153
-9 0 -7 0 -99 -1 -205 l-1 -192 465 0 466 0 2 98 c2 115 2 145 -2 192 -2 19
-2 54 -1 76 l1 42 406 -3 c322 -2 408 -5 414 -15 5 -8 6 -34 3 -59 -3 -25 -8
-110 -10 -188 l-5 -143 471 0 471 0 2 203 3 202 405 0 405 0 3 -202 2 -203
464 0 464 0 4 133 c2 72 0 156 -4 186 -12 94 -44 87 416 90 l406 2 1 -38 c1
-21 1 -113 -1 -205 l-2 -168 472 0 473 0 -6 206 -7 205 33 -3 c36 -3 49 -35
24 -60 -12 -12 -13 -17 -1 -33 13 -18 15 -18 31 -2 15 15 16 22 5 49 -7 19 -8
36 -3 41 5 5 79 8 165 8 l156 -2 0 466 0 466 -200 -3 c-122 -1 -204 2 -210 8
-6 6 -6 22 1 44 7 23 9 162 7 400 l-3 365 22 3 c12 2 29 0 37 -5 14 -8 14 -12
1 -37 -13 -24 -13 -35 -3 -62 10 -29 9 -36 -7 -53 -14 -17 -15 -23 -5 -36 29
-35 54 -10 37 38 -6 19 -5 37 2 55 8 19 9 37 2 53 -18 47 -6 51 163 50 l156
-2 0 465 0 466 -202 2 -203 3 -1 385 c0 212 3 395 7 408 8 22 10 22 204 22
l195 0 0 471 0 471 -142 -6 c-166 -6 -159 -6 -218 -3 l-45 2 -5 70 c-3 39 -1
95 3 125 5 30 6 182 3 338 -4 213 -2 282 7 279 6 -2 14 -14 17 -26 7 -29 24
-28 30 1 6 23 7 23 178 26 l172 2 0 466 0 465 -154 -2 c-85 0 -159 2 -165 5
-5 3 -21 2 -35 -4 -56 -21 -58 -15 -51 185 4 101 4 192 0 204 -6 21 -7 21
-471 21 l-465 0 3 -197 c1 -109 -1 -204 -6 -211 -4 -7 -15 -11 -23 -8 -8 3
-187 6 -398 6 -303 1 -385 3 -394 14 -8 9 -8 35 -1 87 11 83 13 269 4 293 -5
14 -56 16 -470 16 l-464 0 -1 -167 c-1 -93 0 -185 1 -206 l2 -37 -409 2 -408
3 -1 40 c0 22 -2 113 -2 203 l-2 162 -470 0 -470 0 -1 -47 c-3 -85 2 -196 12
-267 7 -49 6 -73 -2 -82 -9 -11 -86 -14 -415 -14 l-404 0 6 205 7 205 -471 0
-472 0 -2 -62z m1653 -1287 c4 -1 9 -10 12 -22 l6 -20 21 21 c12 12 28 20 37
18 13 -2 15 -20 15 -108 -1 -173 0 -478 1 -590 l2 -105 -405 0 -405 0 -3 55
c-1 30 -1 78 0 105 2 28 3 184 2 348 -1 179 3 297 8 297 6 0 12 -9 15 -20 7
-26 23 -26 30 -1 3 11 12 22 22 24 13 3 620 1 642 -2z m1849 -331 c3 -184 3
-366 0 -403 l-5 -69 -395 -2 c-232 -1 -400 2 -407 7 -10 7 -13 98 -13 392 0
211 3 391 6 399 6 15 48 16 408 14 l401 -3 5 -335z m981 330 c10 -6 19 -17 19
-25 0 -8 5 -15 10 -15 6 0 10 9 10 19 0 11 8 22 18 25 31 9 701 6 707 -4 4 -7
9 -573 6 -755 l-1 -50 -408 0 -407 0 2 405 c1 223 2 406 2 408 2 5 24 1 42 -8z
m-2752 -1749 c11 -7 14 -79 14 -398 0 -214 -3 -395 -7 -401 -5 -9 -111 -12
-407 -12 l-399 0 -2 43 c-1 23 -1 51 -1 62 3 49 5 462 3 572 -1 68 1 127 4
132 7 11 777 13 795 2z m1769 -404 l2 -407 -407 2 -408 3 -3 395 c-1 217 0
401 3 408 3 9 91 12 407 10 l403 -3 3 -408z m1750 0 l2 -407 -406 2 -407 3 -1
395 c-1 232 2 400 7 408 8 9 96 12 406 10 l396 -3 3 -408z m-387 -1338 c314 2
389 0 390 -11 2 -44 -2 -802 -5 -805 -3 -3 -348 -4 -751 -3 l-65 0 1 363 c1
199 -2 380 -6 401 -6 32 -4 42 10 52 10 7 22 11 28 7 5 -3 185 -5 398 -4z
m-3109 -34 c-2 -16 -6 -198 -8 -404 -2 -206 -6 -376 -8 -379 -7 -6 -796 -3
-807 4 -6 3 -8 13 -4 22 3 9 6 191 6 404 l0 387 412 -2 412 -2 -3 -30z m1746
-378 l2 -407 -407 2 -408 3 -3 395 c-1 217 0 401 3 408 4 10 88 12 407 10
l403 -3 3 -408z"/>
<path d="M2051 5214 c0 -11 3 -14 6 -6 3 7 2 16 -1 19 -3 4 -6 -2 -5 -13z"/>
<path d="M2052 5110 c0 -14 2 -19 5 -12 2 6 2 18 0 25 -3 6 -5 1 -5 -13z"/>
<path d="M1381 5031 c-10 -7 -10 -10 -1 -16 6 -4 16 -3 22 3 13 13 -4 23 -21
13z"/>
<path d="M1840 5030 c0 -5 7 -10 15 -10 8 0 15 5 15 10 0 6 -7 10 -15 10 -8 0
-15 -4 -15 -10z"/>
<path d="M1960 5025 c0 -8 7 -15 15 -15 8 0 15 7 15 15 0 8 -7 15 -15 15 -8 0
-15 -7 -15 -15z"/>
<path d="M2070 4945 c-10 -19 -10 -27 -1 -39 16 -19 41 -10 41 14 0 10 5 20
11 22 6 2 0 9 -14 15 -21 10 -26 9 -37 -12z"/>
<path d="M1370 4925 c-22 -27 12 -49 38 -23 8 8 9 15 1 25 -15 17 -24 16 -39
-2z"/>
<path d="M1840 4922 c0 -11 59 -22 78 -15 25 10 11 19 -33 22 -25 1 -45 -2
-45 -7z"/>
<path d="M3590 4920 c0 -5 7 -10 15 -10 8 0 15 5 15 10 0 6 -7 10 -15 10 -8 0
-15 -4 -15 -10z"/>
<path d="M3730 4920 c0 -5 16 -10 35 -10 19 0 35 5 35 10 0 6 -16 10 -35 10
-19 0 -35 -4 -35 -10z"/>
<path d="M5020 5220 c0 -5 5 -10 10 -10 6 0 10 5 10 10 0 6 -4 10 -10 10 -5 0
-10 -4 -10 -10z"/>
<path d="M5020 5145 c0 -8 5 -15 10 -15 6 0 10 7 10 15 0 8 -4 15 -10 15 -5 0
-10 -7 -10 -15z"/>
<path d="M5014 5035 c-7 -17 4 -37 17 -30 12 8 12 45 -1 45 -6 0 -13 -7 -16
-15z"/>
<path d="M4892 4946 c-7 -17 -7 -27 1 -35 28 -28 57 1 37 38 -14 27 -24 26
-38 -3z"/>
<path d="M5587 4926 c-6 -15 11 -36 29 -36 14 0 23 20 17 38 -6 16 -40 15 -46
-2z"/>
<path d="M5098 4913 c6 -2 18 -2 25 0 6 3 1 5 -13 5 -14 0 -19 -2 -12 -5z"/>
<path d="M1376 3694 c-3 -9 -6 -24 -6 -35 0 -16 3 -18 19 -10 13 7 17 18 14
36 -6 28 -18 33 -27 9z"/>
<path d="M2052 3640 c0 -14 2 -19 5 -12 2 6 2 18 0 25 -3 6 -5 1 -5 -13z"/>
<path d="M1380 3325 c0 -8 5 -15 10 -15 6 0 10 7 10 15 0 8 -4 15 -10 15 -5 0
-10 -7 -10 -15z"/>
<path d="M1971 3324 c0 -11 3 -14 6 -6 3 7 2 16 -1 19 -3 4 -6 -2 -5 -13z"/>
<path d="M2052 3290 c0 -14 2 -19 5 -12 2 6 2 18 0 25 -3 6 -5 1 -5 -13z"/>
<path d="M3730 3721 c0 -9 33 -21 58 -21 6 0 12 7 12 15 0 10 -11 15 -35 15
-19 0 -35 -4 -35 -9z"/>
<path d="M3270 3675 c0 -8 2 -15 4 -15 2 0 6 7 10 15 3 8 1 15 -4 15 -6 0 -10
-7 -10 -15z"/>
<path d="M3311 3682 c-1 -7 6 -20 14 -28 13 -14 15 -13 15 6 0 12 -4 19 -9 16
-5 -4 -12 0 -14 6 -4 10 -6 10 -6 0z"/>
<path d="M3760 3681 c0 -5 -8 -12 -17 -14 -10 -3 -1 -5 20 -6 27 -1 37 3 37
14 0 8 -9 15 -20 15 -11 0 -20 -4 -20 -9z"/>
<path d="M3668 3663 c7 -3 16 -2 19 1 4 3 -2 6 -13 5 -11 0 -14 -3 -6 -6z"/>
<path d="M3270 3325 c0 -8 7 -15 15 -15 8 0 15 7 15 15 0 8 -7 15 -15 15 -8 0
-15 -7 -15 -15z"/>
<path d="M3690 3325 c0 -8 5 -15 10 -15 6 0 10 7 10 15 0 8 -4 15 -10 15 -5 0
-10 -7 -10 -15z"/>
<path d="M3760 3305 c0 -24 -5 -35 -15 -35 -8 0 -15 -7 -15 -15 0 -8 7 -15 15
-15 8 0 15 7 15 15 0 8 9 15 20 15 16 0 20 7 20 35 0 28 -4 35 -20 35 -16 0
-20 -7 -20 -35z"/>
<path d="M3270 3255 c0 -8 4 -15 10 -15 5 0 7 7 4 15 -4 8 -8 15 -10 15 -2 0
-4 -7 -4 -15z"/>
<path d="M5598 2101 c-14 -13 -15 -20 -6 -29 27 -27 58 1 35 31 -11 13 -14 13
-29 -2z"/>
<path d="M4895 2089 c-9 -13 3 -59 15 -59 14 0 32 39 26 56 -6 16 -32 19 -41
3z"/>
<path d="M5017 1993 c-10 -9 -8 -25 3 -43 8 -13 11 -12 24 5 19 26 -5 60 -27
38z"/>
<path d="M5558 1973 c7 -3 16 -2 19 1 4 3 -2 6 -13 5 -11 0 -14 -3 -6 -6z"/>
<path d="M4908 1396 c-10 -7 -18 -16 -18 -20 0 -10 38 -7 46 5 11 18 -10 29
-28 15z"/>
<path d="M5607 1394 c-8 -8 1 -24 14 -24 5 0 9 7 9 15 0 15 -12 20 -23 9z"/>
<path d="M1365 2091 c-9 -16 3 -31 26 -31 14 0 19 6 17 17 -4 20 -33 29 -43
14z"/>
<path d="M2064 2086 c-7 -17 12 -56 27 -56 5 0 16 6 23 12 11 11 11 17 -1 35
-17 26 -41 30 -49 9z"/>
<path d="M1638 2073 c7 -3 16 -2 19 1 4 3 -2 6 -13 5 -11 0 -14 -3 -6 -6z"/>
<path d="M1962 1987 c-13 -15 1 -42 17 -33 13 9 15 33 2 40 -5 3 -13 0 -19 -7z"/>
<path d="M1370 1975 c0 -11 7 -15 23 -13 12 2 22 8 22 13 0 6 -10 11 -22 13
-16 2 -23 -2 -23 -13z"/>
<path d="M1813 1973 c9 -2 25 -2 35 0 9 3 1 5 -18 5 -19 0 -27 -2 -17 -5z"/>
<path d="M1971 1434 c0 -11 3 -14 6 -6 3 7 2 16 -1 19 -3 4 -6 -2 -5 -13z"/>
<path d="M2051 1434 c0 -11 3 -14 6 -6 3 7 2 16 -1 19 -3 4 -6 -2 -5 -13z"/>
<path d="M2063 1395 c4 -9 7 -19 7 -21 0 -2 7 -4 15 -4 22 0 18 18 -7 31 -18
10 -20 9 -15 -6z"/>
<path d="M1370 1384 c0 -9 5 -14 12 -12 18 6 21 28 4 28 -9 0 -16 -7 -16 -16z"/>
<path d="M3388 2083 c7 -3 16 -2 19 1 4 3 -2 6 -13 5 -11 0 -14 -3 -6 -6z"/>
<path d="M3590 2080 c0 -5 7 -10 15 -10 8 0 15 5 15 10 0 6 -7 10 -15 10 -8 0
-15 -4 -15 -10z"/>
<path d="M3730 2065 c0 -10 11 -15 35 -15 24 0 35 5 35 15 0 10 -11 15 -35 15
-24 0 -35 -5 -35 -15z"/>
<path d="M3598 1973 c7 -3 16 -2 19 1 4 3 -2 6 -13 5 -11 0 -14 -3 -6 -6z"/>
<path d="M3748 1973 c12 -2 30 -2 40 0 9 3 -1 5 -23 4 -22 0 -30 -2 -17 -4z"/>
<path d="M332 6930 c0 -14 2 -19 5 -12 2 6 2 18 0 25 -3 6 -5 1 -5 -13z"/>
<path d="M1840 6895 c0 -8 7 -15 15 -15 8 0 15 7 15 15 0 8 -7 15 -15 15 -8 0
-15 -7 -15 -15z"/>
<path d="M2051 6824 c0 -11 3 -14 6 -6 3 7 2 16 -1 19 -3 4 -6 -2 -5 -13z"/>
<path d="M5020 6825 c0 -8 5 -15 10 -15 6 0 10 7 10 15 0 8 -4 15 -10 15 -5 0
-10 -7 -10 -15z"/>
<path d="M6647 6692 c-17 -18 -17 -20 3 -43 17 -20 21 -22 30 -9 13 20 13 33
-3 54 -12 16 -14 16 -30 -2z"/>
<path d="M315 6681 c-6 -21 3 -51 16 -51 14 0 29 37 23 54 -8 22 -31 20 -39
-3z"/>
<path d="M2063 6684 c-9 -23 13 -40 32 -24 12 10 13 16 4 26 -15 18 -28 18
-36 -2z"/>
<path d="M4911 6691 c-17 -11 -7 -41 13 -41 22 0 30 20 15 36 -9 8 -19 10 -28
5z"/>
<path d="M1592 6680 c-281 -8 -225 -24 93 -27 152 -1 279 -4 284 -7 9 -6 37
21 29 29 -7 8 -213 10 -406 5z"/>
<path d="M5003 6677 c-3 -5 -2 -11 1 -14 6 -7 587 -5 594 2 3 2 -1 7 -9 9 -24
9 -581 11 -586 3z"/>
<path d="M0 6671 c0 -14 192 -23 263 -12 5 0 5 6 2 11 -8 13 -265 14 -265 1z"/>
<path d="M3210 6670 c-11 -7 2 -10 43 -10 31 0 57 4 57 10 0 13 -80 13 -100 0z"/>
<path d="M3340 6670 c0 -12 -2 -12 155 -12 172 1 165 1 165 12 0 6 -60 10
-160 10 -100 0 -160 -4 -160 -10z"/>
<path d="M3690 6671 c0 -12 49 -20 83 -14 46 9 30 23 -28 23 -30 0 -55 -4 -55
-9z"/>
<path d="M3810 6670 c0 -5 5 -10 10 -10 6 0 10 5 10 10 0 6 -4 10 -10 10 -5 0
-10 -4 -10 -10z"/>
<path d="M6732 6668 c3 -7 20 -13 39 -12 19 0 78 1 132 2 153 3 120 22 -39 22
-104 0 -135 -3 -132 -12z"/>
<path d="M1370 6635 c0 -8 7 -15 15 -15 8 0 15 7 15 15 0 8 -7 15 -15 15 -8 0
-15 -7 -15 -15z"/>
<path d="M5610 6634 c0 -8 5 -12 10 -9 6 4 8 11 5 16 -9 14 -15 11 -15 -7z"/>
<path d="M331 5144 c0 -11 3 -14 6 -6 3 7 2 16 -1 19 -3 4 -6 -2 -5 -13z"/>
<path d="M6643 5043 c-18 -7 -16 -30 2 -37 17 -6 20 -57 4 -73 -7 -7 -6 -20 4
-44 14 -34 14 -34 26 -11 9 17 10 31 1 56 -6 18 -8 52 -4 75 7 42 0 48 -33 34z"/>
<path d="M108 4913 c12 -2 30 -2 40 0 9 3 -1 5 -23 4 -22 0 -30 -2 -17 -4z"/>
<path d="M6778 4913 c6 -2 18 -2 25 0 6 3 1 5 -13 5 -14 0 -19 -2 -12 -5z"/>
<path d="M6778 2083 c6 -2 18 -2 25 0 6 3 1 5 -13 5 -14 0 -19 -2 -12 -5z"/>
<path d="M345 1390 c-3 -6 1 -13 10 -16 19 -8 30 0 20 15 -8 14 -22 14 -30 1z"/>
<path d="M6627 1393 c-13 -12 -7 -23 12 -23 26 0 35 16 15 24 -19 7 -19 7 -27
-1z"/>
<path d="M314 355 c-3 -14 0 -33 9 -45 12 -18 16 -19 27 -5 15 18 6 61 -15 69
-10 3 -17 -3 -21 -19z"/>
<path d="M1370 366 c0 -9 7 -16 16 -16 9 0 14 5 12 12 -6 18 -28 21 -28 4z"/>
<path d="M5610 364 c0 -8 5 -12 10 -9 6 4 8 11 5 16 -9 14 -15 11 -15 -7z"/>
<path d="M1961 351 c-7 -5 -72 -9 -145 -9 -72 -1 -194 -1 -270 -1 -77 -1 -136
-4 -132 -8 4 -5 31 -8 59 -9 29 0 157 -1 285 -3 129 -1 237 0 240 4 11 11 -22
35 -37 26z"/>
<path d="M5009 344 c-18 -22 6 -36 40 -22 16 6 127 8 283 6 141 -1 260 0 264
5 4 4 -117 7 -269 7 -173 0 -278 4 -282 10 -9 14 -21 12 -36 -6z"/>
<path d="M2063 343 c-9 -3 -10 -10 -3 -24 15 -27 42 -25 38 3 -3 23 -15 30
-35 21z"/>
<path d="M4901 336 c-9 -10 -8 -16 4 -26 12 -10 18 -9 31 5 15 14 15 18 3 26
-19 12 -25 11 -38 -5z"/>
<path d="M25 330 c46 -12 235 -12 235 0 0 6 -50 10 -132 9 -83 -1 -122 -4
-103 -9z"/>
<path d="M3255 330 c27 -12 35 -12 35 0 0 6 -12 10 -27 9 -25 0 -26 -1 -8 -9z"/>
<path d="M3340 332 c0 -9 309 -6 318 3 3 3 -67 5 -156 5 -89 0 -162 -4 -162
-8z"/>
<path d="M3728 327 c29 -7 52 -7 75 1 28 9 23 10 -43 10 -72 0 -73 -1 -32 -11z"/>
<path d="M6734 333 c4 -5 66 -8 137 -8 71 0 129 3 129 8 0 4 -61 7 -137 7 -75
0 -133 -3 -129 -7z"/>
<path d="M5022 210 c0 -14 2 -19 5 -12 2 6 2 18 0 25 -3 6 -5 1 -5 -13z"/>
</g>
</svg>
